<svg width="39" height="56" viewBox="0 0 39 56" fill="none" xmlns="http://www.w3.org/2000/svg">
<path fill-rule="evenodd" clip-rule="evenodd" d="M3.07146e-06 18.9458C3.07146e-06 13.7534 1.89291 9.2496 5.62676 5.56067C9.36061 1.87109 13.9029 0 19.1274 0C24.3525 0 28.9025 1.87109 32.6511 5.56131C36.3984 9.25024 38.299 13.7534 38.299 18.9458C38.299 25.648 35.4501 30.0241 33.0598 32.5144C30.2667 35.425 26.6342 37.2332 23.5805 37.2332H23.5799C21.5843 37.2326 20.1457 36.4344 19.5297 34.9848C18.9041 33.5135 17.3046 28.5665 18.1026 22.4647L18.1315 22.1785L17.8505 22.1208C13.8971 20.2535 13.9354 18.8376 16.7282 20.9285C17.3095 21.2256 17.1132 21.1204 17.3095 21.2256C18.7411 21.9899 20.2278 22.346 21.9886 22.346C22.977 22.3289 23.9634 22.2483 24.9415 22.1047C25.6793 21.9944 26.423 21.929 27.1687 21.909C27.5023 21.9054 27.8354 21.9344 28.1633 21.9956C28.2565 22.0141 28.3513 22.0235 28.4463 22.0239C29.0956 22.0239 29.4839 21.5696 29.4839 21.13C29.4841 20.9435 29.415 20.7635 29.2901 20.625C29.5467 20.6385 29.7893 20.6456 30.0177 20.6449C31.7515 20.6449 32.7756 20.2638 33.0611 19.5124C33.3473 18.7616 32.8494 17.8049 31.5821 16.6698C31.0604 15.8812 29.573 15.2447 28.0003 14.5716C26.8344 14.0724 25.6294 13.5565 24.9537 13.0175C24.303 12.4665 23.6854 11.8775 23.1044 11.2535C22.8676 11.0084 22.6591 10.7928 22.4961 10.6369C22.3011 10.4289 22.0626 10.2666 21.7976 10.1613C21.5327 10.0561 21.2477 10.0105 20.9632 10.0279L20.7296 10.0286C20.2792 10.0286 19.8146 9.98623 19.0908 9.47355C18.6416 9.15464 18.7713 8.79338 19.0395 8.23642C19.1406 8.0605 19.2081 7.86727 19.2384 7.66662C19.2621 7.46471 19.2444 7.26009 19.1864 7.06526C19.1283 6.87043 19.0312 6.68947 18.9009 6.53344C18.8062 6.43295 18.6915 6.35344 18.5641 6.30006C18.4368 6.24667 18.2997 6.22059 18.1617 6.22351C18.0885 6.22388 18.0156 6.23031 17.9435 6.24275C17.7479 6.27148 17.5628 6.3492 17.4052 6.46868C17.2477 6.58815 17.123 6.74552 17.0426 6.92613C16.9504 7.13067 16.9082 7.35427 16.9197 7.57836C16.9312 7.80245 16.996 8.02057 17.1087 8.2146C17.1607 8.30058 17.2274 8.39555 17.2993 8.49757C17.5309 8.82674 17.819 9.23677 17.7946 9.66861C17.7748 10.0132 17.4616 10.5233 17.0676 10.5233C16.8097 10.5233 16.528 10.3083 16.2527 9.90153C16.1148 9.69748 16.3413 9.23677 16.5068 8.90053C16.6525 8.60601 16.7776 8.35127 16.7776 8.1177C16.7952 7.86856 16.7619 7.61844 16.6797 7.38259C16.5975 7.14673 16.4682 6.93008 16.2996 6.74583C16.186 6.61628 16.0473 6.5112 15.8919 6.43696C15.7365 6.36271 15.5676 6.32087 15.3955 6.31398C15.2603 6.31354 15.1265 6.34221 15.0034 6.39804C14.3835 6.67973 14.1333 6.99607 14.1866 8.22678C14.2013 8.57007 14.3797 8.83765 14.5523 9.09688L14.6389 9.22778C15.3582 10.3424 15.1061 10.7421 14.7859 11.0552C14.7456 11.1046 14.6955 11.1449 14.6387 11.1736C14.5818 11.2024 14.5196 11.2189 14.4561 11.2221C14.3341 11.2115 14.2145 11.1816 14.1019 11.1335C13.9543 11.0815 13.8182 11.0302 13.6617 10.9712C12.8776 10.676 11.6918 10.2301 10.8698 10.2301C10.4784 10.2301 10.1877 10.334 10.0061 10.5393C9.50497 11.1059 10.291 11.8438 11.1233 12.6241C11.5025 12.9802 12.2089 13.6424 12.1968 13.8587C11.1079 15.6881 10.4732 18.2143 10.205 21.7922L10.06 25.1764L10.0574 25.3445C10.0228 27.8438 9.75658 30.873 9.83615 33.7188C9.90673 36.2521 9.97988 38.8713 9.97988 41.5368C9.97988 51.5025 5.03193 55.812 0 56L3.07146e-06 18.9458Z" fill="url(#paint0_linear_52_104)"/>
<defs>
<linearGradient id="paint0_linear_52_104" x1="3.07146e-06" y1="28" x2="38.299" y2="28" gradientUnits="userSpaceOnUse">
<stop stop-color="#FF0000"/>
<stop offset="1" stop-color="#FF0049"/>
</linearGradient>
</defs>
</svg>
